<svg xmlns="http://www.w3.org/2000/svg" width="100" height="100" viewBox="0 0 100 100">
  <g id="klimatyzacja_icon" transform="translate(-2 -2)">
    <path id="path4" d="M17.712,49.545a3.451,3.451,0,0,1-2.45-1l-2.968-2.968a9.076,9.076,0,0,1,0-12.769,2.174,2.174,0,0,0,.552-2.554L11.19,26.8A3.451,3.451,0,0,1,17.333,23.7l1.656,3.451A8.972,8.972,0,0,1,17.3,37.5a2.174,2.174,0,0,0,0,3.106l2.968,2.968a3.52,3.52,0,0,1-2.554,5.97Z" transform="translate(19.847 52.454)" fill="#0ddea1"/>
    <path id="path6" d="M22.712,49.545a3.451,3.451,0,0,1-2.45-1l-2.968-2.968a9.076,9.076,0,0,1,0-12.769,2.174,2.174,0,0,0,.552-2.554L16.19,26.8A3.451,3.451,0,0,1,22.333,23.7l1.656,3.451A8.972,8.972,0,0,1,22.3,37.5a2.174,2.174,0,0,0,0,3.106l2.968,2.968a3.52,3.52,0,0,1-2.554,5.97Z" transform="translate(32.787 52.454)" fill="#0ddea1"/>
    <path id="path8" d="M27.712,49.545a3.451,3.451,0,0,1-2.45-1l-2.968-2.968a9.076,9.076,0,0,1,0-12.769,2.174,2.174,0,0,0,.552-2.554L21.19,26.8A3.451,3.451,0,0,1,27.333,23.7l1.656,3.451A8.972,8.972,0,0,1,27.3,37.5a2.174,2.174,0,0,0,0,3.106l2.968,2.968a3.52,3.52,0,0,1-2.554,5.97Z" transform="translate(45.726 52.454)" fill="#0ddea1"/>
    <path id="path10" d="M5.571,23.451H98.428A3.513,3.513,0,0,0,102,20H2A3.513,3.513,0,0,0,5.571,23.451Z" transform="translate(0 46.346)" fill="#0ddea1"/>
    <path id="path12" d="M48.428,57.215a3.637,3.637,0,0,1-2.536-1,3.37,3.37,0,0,1,0-4.9l3.286-3.175a8.792,8.792,0,0,1-6.857-2.278L38.75,42.411a3.383,3.383,0,0,1,0-4.9,3.675,3.675,0,0,1,5.071,0l3.214,3.106a8.019,8.019,0,0,1,2.429-6.557l3.571-3.451a3.675,3.675,0,0,1,5.071,0,3.383,3.383,0,0,1,0,4.9l-3.286,3.175a8.792,8.792,0,0,1,6.857,2.278l3.571,3.451a3.37,3.37,0,0,1,0,4.9,3.66,3.66,0,0,1-5.071,0l-3.214-3.106a8.019,8.019,0,0,1-2.429,6.557l-3.571,3.451a3.637,3.637,0,0,1-2.536,1H102V38.028a3.451,3.451,0,0,0-2.179-3.175L69.857,22.706V5.451A3.513,3.513,0,0,0,66.285,2H37.714a3.513,3.513,0,0,0-3.571,3.451V22.706L4.179,34.853A3.451,3.451,0,0,0,2,38.028V57.215Z" transform="translate(0 0)" fill="#0ddea1"/>
  </g>
</svg>
