<svg xmlns="http://www.w3.org/2000/svg" width="214" height="84.413" viewBox="0 0 214 84.413">
  <g id="logo_avangarde" transform="translate(-39.881 -206.745)">
    <g id="g6682" transform="translate(39.881 206.745)">
      <path id="path996" d="M77.6,245.155l5.87,16.076L89.3,245.155h3.722l-7.75,20.3H81.669l-7.75-20.3Z" transform="translate(-44.303 -211.888)" fill="#fff"/>
      <path id="path998" d="M100.083,246.73a11.042,11.042,0,0,1,2.916-1.5,12.788,12.788,0,0,1,4.336-.652,11.015,11.015,0,0,1,3.146.422,5.979,5.979,0,0,1,2.494,1.3,5.871,5.871,0,0,1,1.65,2.456,10.438,10.438,0,0,1,.576,3.722v12.892h-3.376v-1.458a10.6,10.6,0,0,1-5.986,1.727,10.432,10.432,0,0,1-2.878-.384,6.571,6.571,0,0,1-2.3-1.189,5.858,5.858,0,0,1-1.535-2.033,6.817,6.817,0,0,1-.576-2.916,6.98,6.98,0,0,1,.576-2.916,5.675,5.675,0,0,1,1.611-2.149,6.991,6.991,0,0,1,2.456-1.266,10.026,10.026,0,0,1,3.108-.46,14.249,14.249,0,0,1,2.724.269,12.387,12.387,0,0,1,2.609.806v-.691a6.16,6.16,0,0,0-.345-2.225,3.253,3.253,0,0,0-.921-1.458,3.62,3.62,0,0,0-1.5-.767,7.75,7.75,0,0,0-1.957-.23,9.816,9.816,0,0,0-2.954.422,9.246,9.246,0,0,0-2.417,1.189Zm6.561,15.884a11.043,11.043,0,0,0,2.532-.307,10.334,10.334,0,0,0,2.456-.882v-5.64a11.8,11.8,0,0,0-2.225-.576,13.531,13.531,0,0,0-2.225-.192,6.69,6.69,0,0,0-3.683.959,3.208,3.208,0,0,0-1.5,2.954,3.747,3.747,0,0,0,.345,1.688,3.612,3.612,0,0,0,1,1.151,5.305,5.305,0,0,0,1.5.652A8.124,8.124,0,0,0,106.644,262.615Z" transform="translate(-47.695 -211.813)" fill="#fff"/>
      <path id="path1000" d="M127.648,245.081v2.494a7.627,7.627,0,0,1,6.408-2.993,8.144,8.144,0,0,1,2.8.46,5.289,5.289,0,0,1,2.225,1.381,6.386,6.386,0,0,1,1.42,2.494,11.474,11.474,0,0,1,.5,3.607v12.853h-3.646v-12.47a4.884,4.884,0,0,0-1.228-3.76,4.529,4.529,0,0,0-3.223-1.113,5.644,5.644,0,0,0-2.916.767,5.573,5.573,0,0,0-2.149,2.8v13.774h-3.645v-20.3Z" transform="translate(-51.111 -211.812)" fill="#fff"/>
      <path id="path1002" d="M175.875,246.73a11.041,11.041,0,0,1,2.916-1.5,12.788,12.788,0,0,1,4.336-.652,11.015,11.015,0,0,1,3.146.422,5.979,5.979,0,0,1,2.494,1.3,5.871,5.871,0,0,1,1.65,2.456,10.438,10.438,0,0,1,.576,3.722v12.892h-3.376v-1.458a10.6,10.6,0,0,1-5.986,1.727,10.433,10.433,0,0,1-2.878-.384,6.571,6.571,0,0,1-2.3-1.189,5.857,5.857,0,0,1-1.535-2.033,6.816,6.816,0,0,1-.576-2.916,6.979,6.979,0,0,1,.576-2.916,5.674,5.674,0,0,1,1.611-2.149,6.99,6.99,0,0,1,2.456-1.266,10.025,10.025,0,0,1,3.108-.46,14.249,14.249,0,0,1,2.724.269,12.387,12.387,0,0,1,2.609.806v-.691a6.16,6.16,0,0,0-.345-2.225,3.253,3.253,0,0,0-.921-1.458,3.62,3.62,0,0,0-1.5-.767,7.75,7.75,0,0,0-1.957-.23,9.816,9.816,0,0,0-2.954.422,9.246,9.246,0,0,0-2.417,1.189Zm6.561,15.884a11.043,11.043,0,0,0,2.532-.307,10.334,10.334,0,0,0,2.456-.882v-5.64a11.8,11.8,0,0,0-2.225-.576,13.531,13.531,0,0,0-2.225-.192,6.69,6.69,0,0,0-3.683.959,3.208,3.208,0,0,0-1.5,2.954,3.747,3.747,0,0,0,.345,1.688,3.611,3.611,0,0,0,1,1.151,5.305,5.305,0,0,0,1.5.652A8.124,8.124,0,0,0,182.436,262.615Z" transform="translate(-57.789 -211.813)" fill="#fff"/>
      <path id="path1004" d="M211.5,249.032a3.074,3.074,0,0,0-1.266-.767,5.471,5.471,0,0,0-1.65-.23,5.37,5.37,0,0,0-2.839.767,5.741,5.741,0,0,0-2.11,2.878v13.7h-3.645v-20.3h3.453v2.456a6.9,6.9,0,0,1,5.832-2.954,5.322,5.322,0,0,1,2.187.384,4.525,4.525,0,0,1,1.381.844Z" transform="translate(-61.195 -211.812)" fill="#fff"/>
      <path id="path1006" d="M234.8,235.894v28.354h-3.415v-2.609a8.2,8.2,0,0,1-2.532,2.225,7.191,7.191,0,0,1-3.645.882,6.552,6.552,0,0,1-3.568-.921,7.409,7.409,0,0,1-2.379-2.417,10.95,10.95,0,0,1-1.343-3.415,19.763,19.763,0,0,1,0-7.75,10.951,10.951,0,0,1,1.343-3.415,7.29,7.29,0,0,1,2.379-2.456,6.552,6.552,0,0,1,3.568-.921,7.031,7.031,0,0,1,3.453.806,8.139,8.139,0,0,1,2.494,2.034v-9.17Zm-8.671,25.477a4.886,4.886,0,0,0,2.993-.883,7.39,7.39,0,0,0,2.034-2.379V250.09a7.522,7.522,0,0,0-2.034-2.34,4.675,4.675,0,0,0-3.031-.959,4.4,4.4,0,0,0-2.417.614,4.868,4.868,0,0,0-1.573,1.65,7.075,7.075,0,0,0-.882,2.34,16.232,16.232,0,0,0,0,5.448,7.533,7.533,0,0,0,.882,2.34,4.987,4.987,0,0,0,1.573,1.611A4.845,4.845,0,0,0,226.133,261.371Z" transform="translate(-63.544 -210.666)" fill="#fff"/>
      <path id="path1008" d="M246.661,256.476a9.06,9.06,0,0,0,.652,2.724,6.511,6.511,0,0,0,1.228,1.918,5.53,5.53,0,0,0,1.688,1.113,5.738,5.738,0,0,0,1.957.345,4.845,4.845,0,0,0,2.609-.691,5.871,5.871,0,0,0,1.842-1.688l2.417,2.11a10.754,10.754,0,0,1-1.074,1.228,12.312,12.312,0,0,1-1.5,1.151,9.2,9.2,0,0,1-1.957.844,8.4,8.4,0,0,1-2.494.345,9.015,9.015,0,0,1-3.415-.652,7.818,7.818,0,0,1-2.8-2.034,9.8,9.8,0,0,1-1.88-3.338,14.673,14.673,0,0,1-.691-4.719,15,15,0,0,1,.614-4.489,10.078,10.078,0,0,1,1.765-3.338,7.551,7.551,0,0,1,2.724-2.034,8.979,8.979,0,0,1,6.906,0,7.551,7.551,0,0,1,2.724,2.034,9.222,9.222,0,0,1,1.765,3.338,14.182,14.182,0,0,1,.652,4.489,6.617,6.617,0,0,1-.038.729,4.952,4.952,0,0,1-.038.614Zm5.18-8.594a4.5,4.5,0,0,0-3.492,1.535,7.4,7.4,0,0,0-1.688,4.336h10.321a7.314,7.314,0,0,0-1.688-4.374,4.5,4.5,0,0,0-3.453-1.5Z" transform="translate(-67.046 -211.814)" fill="#fff"/>
      <path id="path1010" d="M60.286,206.745,50.121,267.209l3.158.027,6.963-35.992,6.986,36.111,3.135.027Z" transform="translate(-41.212 -206.745)" fill="#ffc10f"/>
      <path id="path1012" d="M73.337,272.465c-3.777,0-6.839,3.674-6.838,8.206s3.062,8.206,6.838,8.206,6.838-3.674,6.838-8.206-3.062-8.206-6.838-8.206Zm0,3.256c2.278,0,4.125,2.216,4.125,4.95s-1.847,4.95-4.125,4.95-4.125-2.216-4.125-4.95,1.847-4.95,4.125-4.95Z" transform="translate(-43.339 -215.578)" fill="#ffc10f"/>
      <rect id="rect1014" width="8.477" height="3.64" transform="translate(14.792 35.159)" fill="#ffc10f"/>
      <path id="path1016" d="M46.72,272.465c-3.777,0-6.839,3.674-6.838,8.206s3.062,8.206,6.838,8.206,6.838-3.674,6.838-8.206-3.062-8.206-6.838-8.206Zm0,3.256c2.278,0,4.125,2.216,4.125,4.95s-1.847,4.95-4.125,4.95-4.125-2.216-4.125-4.95,1.847-4.95,4.125-4.95Z" transform="translate(-39.881 -215.578)" fill="#ffc10f"/>
      <path id="path1018" d="M154.3,244.61c-6.382.754-7.891,6.583-7.544,11.937.668,5.255,5.227,9.425,10.491,7.815,3.424-.633,4.454-3.325,2.872.688-2.81,6.2-10.838,5.187-16.247,6.611-6.008,1.431-12.991,5.143-13.338,12.116-.278,7.125,7.115,11.321,13.317,12.237,12.849,1.869,24.893-4.088,36.642-8.5,8.757-3.5,17.724-6.462,26.628-9.553,19.113-5.292,39.363-9.475,59.281-6.656-12.905-3.8-26.679-1.931-39.7.308-11.016,2.118-21.925,4.174-32.393,8.246-14.776,4.449-28.476,12.65-44.126,13.72-6.378.245-12.617-.989-15.623-7.338-2.1-5.784,2.473-10.2,7.6-11.859,6.506-2.071,14.488-.42,19.282-4.942,3.894-3.617,2.473-11.854,2.473-16.408-.33-3.917,1.42-10.038-3.425-7.531a12.125,12.125,0,0,0-6.19-.891Zm.983,3.291c3.594-.105,5.16,2.2,5.213,6.523.069,3.54-.822,6.636-4.393,6.936-5.521.928-7.012-6.006-5.539-10.031a4.864,4.864,0,0,1,4.719-3.429Z" transform="translate(-52.404 -211.954)" fill="#fff"/>
      <path id="path1020" d="M198.988,274.135a77.033,77.033,0,0,0-13.428,2.209c-6.355,1.594-12.562,4.619-18.545,7.33-8.48,3.072-15.794,7.636-24.875,8.775-3.706.353-6.172.235-8.1-3.354-.2-.466-1.7-.915-1.734-1.365l-1.115,1.31c.228,3.965,4.067,5.707,7.619,6.027,7.532.662,13.813-1.764,20.531-4.715,5-2.321,11.334-5.489,16.433-7.579,3.444-1.162,6.034-2.726,9.9-3.945,8.469-2.667,18.716-4.649,26.728-3.976-3.095-.725-10.265-.879-13.422-.716Z" transform="translate(-52.188 -215.787)" fill="#fff"/>
    </g>
  </g>
</svg>
