<svg xmlns="http://www.w3.org/2000/svg" width="16" height="16" viewBox="0 0 16 16">
  <path id="phone_icon" d="M208,140.636a3.751,3.751,0,0,1-.114.8,4.514,4.514,0,0,1-.239.778,3.047,3.047,0,0,1-1.386,1.2,4.213,4.213,0,0,1-2.71.54,4.912,4.912,0,0,1-.653-.142q-.364-.1-.54-.165t-.631-.233q-.455-.17-.557-.2a10.292,10.292,0,0,1-1.989-.943,19.088,19.088,0,0,1-5.455-5.455,10.292,10.292,0,0,1-.943-1.989q-.034-.1-.2-.557t-.233-.631q-.063-.176-.165-.54a4.914,4.914,0,0,1-.142-.653,4.213,4.213,0,0,1,.54-2.71,3.047,3.047,0,0,1,1.2-1.386,4.514,4.514,0,0,1,.778-.239,3.752,3.752,0,0,1,.8-.114.637.637,0,0,1,.239.034q.2.068.6.864.125.216.341.614t.4.722q.182.324.352.608.034.045.2.284a3.173,3.173,0,0,1,.244.4.741.741,0,0,1,.08.324.943.943,0,0,1-.324.568,5.539,5.539,0,0,1-.7.625,6.843,6.843,0,0,0-.7.6.866.866,0,0,0-.324.523.768.768,0,0,0,.057.256,2.476,2.476,0,0,0,.1.233q.04.08.159.273t.131.216a11.263,11.263,0,0,0,4.648,4.648q.023.011.216.131t.273.159a2.486,2.486,0,0,0,.233.1.768.768,0,0,0,.256.057.866.866,0,0,0,.523-.324,6.843,6.843,0,0,0,.6-.7,5.538,5.538,0,0,1,.625-.7.943.943,0,0,1,.568-.324.741.741,0,0,1,.324.08,3.175,3.175,0,0,1,.4.244q.239.165.284.2.284.17.608.352t.722.4q.4.216.614.341.8.4.864.6A.637.637,0,0,1,208,140.636Z" transform="translate(-192 -128)" fill="#fff"/>
</svg>
