<svg xmlns="http://www.w3.org/2000/svg" width="56.179" height="57.306" viewBox="0 0 56.179 57.306">
  <path id="pointer_icon" d="M15.385,3.077a2.964,2.964,0,0,0-2.175.9,2.964,2.964,0,0,0-.9,2.175V27.692l-3.63-4.856a3.082,3.082,0,0,0-2.572-1.3,2.879,2.879,0,0,0-2.139.913A3.066,3.066,0,0,0,3.7,26.466l9.231,12.308A2.9,2.9,0,0,0,15.385,40h17.26a1.515,1.515,0,0,0,.95-.325,1.443,1.443,0,0,0,.541-.829L36.346,30a19.158,19.158,0,0,0,.577-4.663V20.12a2.418,2.418,0,0,0-.673-1.707,2.153,2.153,0,0,0-1.635-.721A2.3,2.3,0,0,0,32.308,20h-.769V18.534a2.731,2.731,0,0,0-.769-1.959,2.549,2.549,0,0,0-1.923-.805,2.709,2.709,0,0,0-2.692,2.692V20h-.769V17.837a3.207,3.207,0,0,0-.889-2.272,2.88,2.88,0,0,0-2.188-.95,3.078,3.078,0,0,0-3.077,3.077V20h-.769V6.3a3.207,3.207,0,0,0-.889-2.272A2.88,2.88,0,0,0,15.385,3.077Zm0-3.077a5.823,5.823,0,0,1,4.363,1.863A6.179,6.179,0,0,1,21.538,6.3v5.288q.529-.048.769-.048A5.9,5.9,0,0,1,26.466,13.2a5.769,5.769,0,0,1,2.38-.5,5.444,5.444,0,0,1,4.423,2.091,5.342,5.342,0,0,1,1.346-.168,5.1,5.1,0,0,1,3.822,1.623A5.4,5.4,0,0,1,40,20.12v5.216a21.652,21.652,0,0,1-.673,5.409l-2.212,8.846a4.6,4.6,0,0,1-4.471,3.486H15.385a6.031,6.031,0,0,1-2.752-.661,6.24,6.24,0,0,1-2.175-1.791L1.226,28.317a6.174,6.174,0,0,1,.565-8.041,5.842,5.842,0,0,1,4.315-1.815,6.012,6.012,0,0,1,3.125.841V6.154a5.929,5.929,0,0,1,1.8-4.351A5.929,5.929,0,0,1,15.385,0Zm3.077,33.846V24.615h-.769v9.231Zm6.154,0V24.615h-.769v9.231Zm6.154,0V24.615H30v9.231Z" transform="translate(0 20) rotate(-30)" fill="#707070"/>
</svg>
