<svg xmlns="http://www.w3.org/2000/svg" width="44.593" height="34.14" viewBox="0 0 44.593 34.14">
  <path id="quote_front_icon" d="M24.468,8.928a8.277,8.277,0,0,1,2.716-6.48A9.75,9.75,0,0,1,33.942.01a10.281,10.281,0,0,1,8.082,3.275,12.581,12.581,0,0,1,2.928,8.709A23.154,23.154,0,0,1,43.21,21.47a22.928,22.928,0,0,1-4.182,6.48,21.052,21.052,0,0,1-5.086,4.041,32.456,32.456,0,0,1-4.6,2.16l-4.46-7.525a11.437,11.437,0,0,0,4.738-3.555,9.84,9.84,0,0,0,2.231-5.224,6.9,6.9,0,0,1-5.088-2.44,9.058,9.058,0,0,1-2.3-6.478Zm-24.109,0a8.278,8.278,0,0,1,2.717-6.48A9.741,9.741,0,0,1,9.835.01a10.279,10.279,0,0,1,8.082,3.275,12.575,12.575,0,0,1,2.928,8.709A23.154,23.154,0,0,1,19.1,21.47a22.956,22.956,0,0,1-4.18,6.48A21.058,21.058,0,0,1,9.835,31.99a32.386,32.386,0,0,1-4.6,2.16L.778,26.625a11.433,11.433,0,0,0,4.736-3.555,9.83,9.83,0,0,0,2.231-5.224,6.891,6.891,0,0,1-5.086-2.44,9.053,9.053,0,0,1-2.3-6.478Z" transform="translate(-0.359 -0.01)" fill="rgba(255,193,15,0.94)"/>
</svg>
