<svg xmlns="http://www.w3.org/2000/svg" width="159.293" height="56.913" viewBox="0 0 159.293 56.913">
  <g id="separator_avangarde" transform="translate(382.079 -174.991)">
    <g id="g5715" transform="translate(-382.079 174.991)">
      <path id="path4946" d="M-369.355,233.181a2.541,2.541,0,0,0,1.525-.293,1.731,1.731,0,0,0,.787-1.132,1.786,1.786,0,0,0-.323-1.35,2.158,2.158,0,0,0-1.168-.785,2.8,2.8,0,0,0-1.454.015,3.974,3.974,0,0,0-1.358.686,4.027,4.027,0,0,0-1.284,1.582,2.823,2.823,0,0,0-.154,1.86,2.694,2.694,0,0,0,.6,1.055,3.516,3.516,0,0,0,1.022.765,6.059,6.059,0,0,0,2.692.556,5.889,5.889,0,0,0,3.71-1.061,4.462,4.462,0,0,0,1.488-2.409,6.255,6.255,0,0,0-.049-3,7.949,7.949,0,0,0-3.721-4.894,8.263,8.263,0,0,0-6.1-.793,8.629,8.629,0,0,0-4.986,3.624,9.049,9.049,0,0,0-1.339,6.044,8.805,8.805,0,0,0,1.376,3.7,10.177,10.177,0,0,0,3.484,3.143,16.48,16.48,0,0,0,4.547,1.677l.085.019a32.343,32.343,0,0,0,14.8-.656,109.054,109.054,0,0,0,14.444-5.227h0a124.2,124.2,0,0,1,15.347-5.482,46.182,46.182,0,0,1,16.1-1.693c9.511.856,13.275,4.506,13.362,4.329-.116.237-4.633-2.476-13.46-2.845a47.312,47.312,0,0,0-15.449,2.183,133.576,133.576,0,0,0-14.98,5.7h0a105.31,105.31,0,0,1-14.731,5.5,34.381,34.381,0,0,1-15.994.73l-.094-.021a18.943,18.943,0,0,1-5.26-1.959,12.683,12.683,0,0,1-4.348-3.976,11.312,11.312,0,0,1-1.756-4.788,11.5,11.5,0,0,1,1.785-7.734,11.007,11.007,0,0,1,6.476-4.586,10.538,10.538,0,0,1,7.837,1.148,10.087,10.087,0,0,1,4.646,6.376,8.287,8.287,0,0,1-.05,4.008,6.417,6.417,0,0,1-2.279,3.43,7.663,7.663,0,0,1-4.947,1.317,7.692,7.692,0,0,1-3.439-.873,5.128,5.128,0,0,1-1.455-1.194,4.247,4.247,0,0,1-.873-1.728,4.28,4.28,0,0,1,.357-2.85,5.327,5.327,0,0,1,1.832-2.04,5.134,5.134,0,0,1,1.846-.788,3.867,3.867,0,0,1,2.051.13,3.1,3.1,0,0,1,1.619,1.3,2.569,2.569,0,0,1,.277,2.046,2.273,2.273,0,0,1-1.283,1.428c-1.4.575-1.7-.343-1.765-.191Z" transform="translate(382.079 -197.578)" fill="rgba(196,196,207,0.94)"/>
      <path id="path4982" d="M-165.841,232.139c-.063-.151-.369.763-1.762.188a2.27,2.27,0,0,1-1.28-1.425,2.565,2.565,0,0,1,.276-2.043,3.1,3.1,0,0,1,1.615-1.3,3.858,3.858,0,0,1,2.047-.132,5.116,5.116,0,0,1,1.843.786,5.316,5.316,0,0,1,1.83,2.041,4.281,4.281,0,0,1,.354,2.849,4.251,4.251,0,0,1-.871,1.725,5.126,5.126,0,0,1-1.451,1.194,7.662,7.662,0,0,1-3.433.876,7.641,7.641,0,0,1-4.937-1.317,6.416,6.416,0,0,1-2.277-3.43,8.274,8.274,0,0,1-.047-4.008,10.063,10.063,0,0,1,4.641-6.355,10.515,10.515,0,0,1,7.818-1.139,10.986,10.986,0,0,1,6.458,4.576,11.484,11.484,0,0,1,1.784,7.713,11.3,11.3,0,0,1-1.752,4.788,12.674,12.674,0,0,1-4.337,3.973,18.887,18.887,0,0,1-5.24,1.959l-.1.023a34.215,34.215,0,0,1-15.963-.728,104.86,104.86,0,0,1-14.7-5.5h0a132.882,132.882,0,0,0-14.944-5.7,47.109,47.109,0,0,0-15.415-2.182c-8.809.368-13.314,3.082-13.43,2.845.087.177,3.839-3.473,13.331-4.329a45.991,45.991,0,0,1,16.068,1.693,123.6,123.6,0,0,1,15.311,5.482h0a108.57,108.57,0,0,0,14.409,5.229,32.176,32.176,0,0,0,14.768.655l.093-.021a16.425,16.425,0,0,0,4.529-1.676,10.172,10.172,0,0,0,3.475-3.141,8.8,8.8,0,0,0,1.373-3.7,9.034,9.034,0,0,0-1.338-6.027,8.611,8.611,0,0,0-4.97-3.615,8.243,8.243,0,0,0-6.08.785,7.927,7.927,0,0,0-3.716,4.875,6.245,6.245,0,0,0-.051,3,4.462,4.462,0,0,0,1.487,2.41,5.868,5.868,0,0,0,3.7,1.06,6.029,6.029,0,0,0,2.685-.558,3.517,3.517,0,0,0,1.019-.765,2.7,2.7,0,0,0,.6-1.054,2.826,2.826,0,0,0-.153-1.86,4.016,4.016,0,0,0-1.282-1.582,3.957,3.957,0,0,0-1.355-.684,2.788,2.788,0,0,0-1.451-.013,2.154,2.154,0,0,0-1.165.785,1.784,1.784,0,0,0-.322,1.348,1.73,1.73,0,0,0,.785,1.13,2.541,2.541,0,0,0,1.521.3Z" transform="translate(312.437 -197.085)" fill="rgba(196,196,207,0.94)"/>
      <path id="path1017" d="M-227.857,242.315l-24.713-45.952-2.137,1.63,14.1,27.83-23.537-20.632-2.121,1.618Z" transform="translate(325.665 -185.402)" fill="#ffc10f"/>
      <path id="path1019" d="M-273.9,210.638c2.539-1.971,2.68-6.038.316-9.085s-6.34-3.919-8.878-1.949-2.68,6.038-.316,9.085,6.339,3.919,8.878,1.949Zm-1.7-2.189c-1.531,1.189-3.929.662-5.356-1.175s-1.341-4.291.19-5.48,3.929-.662,5.356,1.176,1.341,4.291-.191,5.48Z" transform="translate(334.526 -186.467)" fill="#ffc10f"/>
      <rect id="rect1021" width="7.214" height="3.098" transform="translate(82.277 30.956) rotate(142.186)" fill="#ffc10f"/>
      <path id="path1023" d="M-243.539,187.079c2.539-1.971,2.68-6.038.316-9.085s-6.34-3.919-8.878-1.949-2.68,6.038-.316,9.084,6.34,3.919,8.878,1.949Zm-1.7-2.189c-1.531,1.189-3.929.662-5.356-1.176s-1.341-4.291.19-5.48,3.929-.662,5.356,1.176,1.341,4.291-.191,5.48Z" transform="translate(319.739 -174.991)" fill="#ffc10f"/>
      <path id="path4976" d="M-198.134,233.02c.083-.029.291.52,1.008.672a1.246,1.246,0,0,0,1.01-.219h0a1.275,1.275,0,0,0,.458-.788,1.575,1.575,0,0,0-.14-.922,2.1,2.1,0,0,0-.621-.752,3.137,3.137,0,0,0-.919-.478,3.173,3.173,0,0,0-1.9-.078,2.1,2.1,0,0,0-1.3,1.068,1.932,1.932,0,0,0-.168.867,2.49,2.49,0,0,0,.215.913,4.09,4.09,0,0,0,1.318,1.562,4.978,4.978,0,0,0,2.981,1.076,3.558,3.558,0,0,0,1.462-.319,2.943,2.943,0,0,0,1.109-.885,3.153,3.153,0,0,0,.53-2.37,4.383,4.383,0,0,0-1.236-2.315,6.777,6.777,0,0,0-3.827-1.818,12.917,12.917,0,0,0-4.573.254,32.383,32.383,0,0,0-7.722,2.865c-.762.378-1.519.773-2.274,1.174-5.528,2.968-10.214,5.915-15.876,7.837a38.111,38.111,0,0,1-21.939.683c-5.254-1.425-7.558-3.212-7.52-3.293.094-.2,2.708,1.083,7.8,2.092a39.561,39.561,0,0,0,20.978-1.433c5.37-1.92,9.836-4.833,15.489-7.872.766-.415,1.544-.823,2.334-1.216a34.31,34.31,0,0,1,8.277-3.015,14.88,14.88,0,0,1,5.363-.222,8.825,8.825,0,0,1,5,2.509,6.4,6.4,0,0,1,1.735,3.469,5.1,5.1,0,0,1-1,3.872,4.842,4.842,0,0,1-1.88,1.421,5.394,5.394,0,0,1-2.249.423,6.674,6.674,0,0,1-4.021-1.58,5.655,5.655,0,0,1-1.742-2.3,4.024,4.024,0,0,1-.274-1.514,3.414,3.414,0,0,1,.39-1.537,3.482,3.482,0,0,1,2.28-1.705,4.37,4.37,0,0,1,2.675.268,4.184,4.184,0,0,1,1.206.757,3.086,3.086,0,0,1,.829,1.218,2.453,2.453,0,0,1,.066,1.5,2.019,2.019,0,0,1-.913,1.2h0a1.776,1.776,0,0,1-1.575.1c-1.16-.508-.7-1.213-.839-1.164Z" transform="translate(321.668 -199.808)" fill="rgba(196,196,207,0.94)"/>
      <path id="path4940" d="M-319.1,234.089c-.14-.049.32.656-.839,1.164a1.776,1.776,0,0,1-1.575-.1h0a2.019,2.019,0,0,1-.913-1.2,2.454,2.454,0,0,1,.066-1.5,3.087,3.087,0,0,1,.829-1.218,4.184,4.184,0,0,1,1.206-.757,4.37,4.37,0,0,1,2.675-.268,3.482,3.482,0,0,1,2.28,1.705,3.413,3.413,0,0,1,.39,1.537,4.024,4.024,0,0,1-.274,1.514,5.655,5.655,0,0,1-1.742,2.3,6.674,6.674,0,0,1-4.021,1.58,5.393,5.393,0,0,1-2.249-.423,4.841,4.841,0,0,1-1.88-1.421,5.1,5.1,0,0,1-1-3.872,6.4,6.4,0,0,1,1.735-3.469,8.825,8.825,0,0,1,5-2.509,14.88,14.88,0,0,1,5.363.222,34.31,34.31,0,0,1,8.277,3.015c.79.392,1.568.8,2.334,1.216,5.653,3.038,10.119,5.952,15.489,7.872a39.561,39.561,0,0,0,20.978,1.433c5.093-1.009,7.707-2.288,7.8-2.092.039.081-2.265,1.868-7.519,3.293a38.111,38.111,0,0,1-21.939-.683c-5.661-1.923-10.348-4.869-15.876-7.837-.754-.4-1.512-.8-2.274-1.174a32.383,32.383,0,0,0-7.723-2.865,12.918,12.918,0,0,0-4.573-.254,6.777,6.777,0,0,0-3.827,1.818,4.383,4.383,0,0,0-1.236,2.315,3.153,3.153,0,0,0,.53,2.37,2.943,2.943,0,0,0,1.109.885,3.558,3.558,0,0,0,1.462.319,4.978,4.978,0,0,0,2.981-1.076,4.089,4.089,0,0,0,1.318-1.562,2.49,2.49,0,0,0,.215-.913,1.932,1.932,0,0,0-.168-.867,2.1,2.1,0,0,0-1.3-1.068,3.173,3.173,0,0,0-1.9.078,3.138,3.138,0,0,0-.919.478,2.1,2.1,0,0,0-.621.752,1.574,1.574,0,0,0-.14.922,1.275,1.275,0,0,0,.458.788h0a1.246,1.246,0,0,0,1.01.219c.717-.153.925-.7,1.008-.672Z" transform="translate(354.862 -200.329)" fill="rgba(196,196,207,0.94)"/>
    </g>
  </g>
</svg>
