<svg xmlns="http://www.w3.org/2000/svg" width="86.667" height="80" viewBox="0 0 86.667 80">
  <g id="sms_icon" transform="translate(-2 -4)">
    <path id="Path_200" data-name="Path 200" d="M13.774,22.4c.234,5-.465,11.878-7.452,15.09L6.9,40.6a26.35,26.35,0,0,0,23.86-16.785Z" transform="translate(10.224 43.37)" fill="#81e60d"/>
    <ellipse id="Ellipse_15" data-name="Ellipse 15" cx="1.627" cy="1.627" rx="1.627" ry="1.627" transform="translate(15.017 80.746)" fill="#81e60d"/>
    <path id="Path_201" data-name="Path 201" d="M75.333,4h-60A13.366,13.366,0,0,0,2,17.4v40.19a13.366,13.366,0,0,0,13.333,13.4h60a13.366,13.366,0,0,0,13.333-13.4V17.4A13.366,13.366,0,0,0,75.333,4Zm-30,40.19A6.7,6.7,0,1,1,52,37.492,6.681,6.681,0,0,1,45.333,44.19Zm20,0A6.7,6.7,0,1,1,72,37.492,6.681,6.681,0,0,1,65.333,44.19Zm-40,0A6.7,6.7,0,1,1,32,37.492,6.681,6.681,0,0,1,25.333,44.19Z" fill="#81e60d"/>
  </g>
</svg>
