<svg xmlns="http://www.w3.org/2000/svg" width="15" height="22.692" viewBox="0 0 15 22.692">
  <path id="cennik_icon" d="M124.413,69.375v2.449c-.991,0-5.45,1.263-5.45,5.311,0,3.6,3.217,4.582,5.447,4.9l0,4.07a3.048,3.048,0,0,1-2.15-2.753h-3.575a6.855,6.855,0,0,0,5.725,6.22v2.492h3.4V89.613c2.69-.143,5.876-2.466,5.876-5.65,0-3.647-3.174-4.682-5.876-4.96V75.272a2.366,2.366,0,0,1,1.983,2.2h3.54c0-3.618-3.291-5.521-5.558-5.652V69.375Zm.019,5.933V78.4C122.036,78.362,121.99,75.737,124.432,75.308Zm3.42,7.313c2.965.075,3.293,3.034,0,3.507Z" transform="translate(-118.688 -69.375)" fill="#fff"/>
</svg>
