<svg xmlns="http://www.w3.org/2000/svg" width="22.286" height="24" viewBox="0 0 22.286 24">
  <path id="iconfinder_calendar_1608599" d="M65.714,22.286h3.857V18.429H65.714Zm4.714,0h4.286V18.429H70.429Zm-4.714-4.714h3.857V13.286H65.714Zm4.714,0h4.286V13.286H70.429Zm-4.714-5.143h3.857V8.571H65.714Zm9.857,9.857h4.286V18.429H75.571Zm-5.143-9.857h4.286V8.571H70.429Zm10.286,9.857h3.857V18.429H80.714Zm-5.143-4.714h4.286V13.286H75.571ZM70.857,6V2.143a.435.435,0,0,0-.429-.429h-.857a.435.435,0,0,0-.429.429V6a.435.435,0,0,0,.429.429h.857A.435.435,0,0,0,70.857,6Zm9.857,11.571h3.857V13.286H80.714Zm-5.143-5.143h4.286V8.571H75.571Zm5.143,0h3.857V8.571H80.714ZM81.143,6V2.143a.435.435,0,0,0-.429-.429h-.857a.435.435,0,0,0-.429.429V6a.435.435,0,0,0,.429.429h.857A.435.435,0,0,0,81.143,6Zm5.143-.857V22.286A1.738,1.738,0,0,1,84.571,24H65.714A1.738,1.738,0,0,1,64,22.286V5.143a1.647,1.647,0,0,1,.509-1.205,1.647,1.647,0,0,1,1.205-.509h1.714V2.143A2.063,2.063,0,0,1,68.058.629,2.063,2.063,0,0,1,69.571,0h.857a2.063,2.063,0,0,1,1.513.629,2.063,2.063,0,0,1,.629,1.513V3.429h5.143V2.143A2.063,2.063,0,0,1,78.344.629,2.063,2.063,0,0,1,79.857,0h.857a2.063,2.063,0,0,1,1.513.629,2.063,2.063,0,0,1,.629,1.513V3.429h1.714a1.647,1.647,0,0,1,1.205.509A1.647,1.647,0,0,1,86.286,5.143Z" transform="translate(-64)" fill="#fff"/>
</svg>
