<svg xmlns="http://www.w3.org/2000/svg" width="24" height="24" viewBox="0 0 24 24">
  <path id="panel_glowny_icon" d="M12,106.63a3.216,3.216,0,1,0,3.216,3.216,3.093,3.093,0,0,0-.087-.712c2.355-2.739,6-7.009,7.947-9.442.667-.833-.067-1.621-.923-.923-2.457,2-6.7,5.616-9.43,7.95A3.2,3.2,0,0,0,12,106.63Zm.919-6.018a.923.923,0,1,0-.923.923A.924.924,0,0,0,12.919,100.612ZM18.458,108a.923.923,0,1,0,.923-.923A.924.924,0,0,0,18.458,108ZM8.3,100.612a.923.923,0,1,0,.923.923A.924.924,0,0,0,8.3,100.612ZM6.458,104.3a.923.923,0,1,0-.923.923A.924.924,0,0,0,6.458,104.3ZM3.689,108a.923.923,0,1,0,.923-.923A.924.924,0,0,0,3.689,108Zm12.923-6.462a.923.923,0,1,0-.923.923A.924.924,0,0,0,16.612,101.535Zm6.26,1.408-1.983,2.594a9.223,9.223,0,1,1-3.757-5.208l2.286-1.749a12.036,12.036,0,1,0,3.454,4.362Z" transform="translate(0 -96)" fill="#fff"/>
</svg>
