<svg xmlns="http://www.w3.org/2000/svg" width="20" height="22.818" viewBox="0 0 20 22.818">
  <g id="password_icon" transform="translate(0 1)">
    <path id="Path_200" data-name="Path 200" d="M19.806,11.275H9V8.517A5.46,5.46,0,0,1,14.4,3h0a5.46,5.46,0,0,1,5.4,5.517Z" transform="translate(-4.403 -3)" fill="none" stroke="#fff" stroke-linecap="round" stroke-linejoin="round" stroke-miterlimit="10" stroke-width="2"/>
    <path id="Path_201" data-name="Path 201" d="M22.182,11H5.818A1.828,1.828,0,0,0,4,12.839V23.872a1.828,1.828,0,0,0,1.818,1.839H22.182A1.828,1.828,0,0,0,24,23.872V12.839A1.828,1.828,0,0,0,22.182,11ZM14,20.194a1.839,1.839,0,1,1,1.818-1.839A1.829,1.829,0,0,1,14,20.194Zm5.455,0a1.839,1.839,0,1,1,1.818-1.839A1.829,1.829,0,0,1,19.455,20.194Zm-10.909,0a1.839,1.839,0,1,1,1.818-1.839A1.829,1.829,0,0,1,8.545,20.194Z" transform="translate(-4 -3.893)" fill="#fff"/>
  </g>
</svg>
