<svg id="g6" xmlns="http://www.w3.org/2000/svg" width="129.361" height="129.684" viewBox="0 0 129.361 129.684">
  <path id="path2" d="M256,111.9Z" transform="translate(-191.319 -111.9)" fill="#c4c4c4"/>
  <path id="path4" d="M225.049,212.235c-5.212-1.756-13.727-2.3-17.45-3.691-2.606-.99-6.747-2.026-8.05-3.6-1.349-1.53-1.349-12.649-1.349-12.649a20.484,20.484,0,0,0,4.607-6.212c1.349-3.286,2.234-12.2,2.234-12.2a2.492,2.492,0,0,0,.7.09c.977,0,2.745-.63,3.583-4.771,1.024-5.087,2.978-7.742,2.466-11.478-.372-2.521-1.489-2.926-2.14-2.926a1.7,1.7,0,0,0-.558.09s2.652-3.781,2.652-16.655c0-13.234-10.563-26.288-30.06-26.333-19.544.045-30.06,13.1-30.06,26.333,0,12.829,2.652,16.655,2.652,16.655a1.7,1.7,0,0,0-.558-.09c-.7,0-1.815.405-2.141,2.926-.512,3.736,1.4,6.437,2.466,11.478.838,4.141,2.606,4.771,3.583,4.771a2.492,2.492,0,0,0,.7-.09s.884,8.958,2.234,12.2a20.484,20.484,0,0,0,4.607,6.212s0,11.118-1.349,12.649-5.444,2.611-8.05,3.6c-3.723,1.4-12.238,1.936-17.45,3.691S117,221.328,117,241.584H246.361C246.361,221.328,230.308,213.991,225.049,212.235Z" transform="translate(-117 -111.9)" fill="#c4c4c4"/>
</svg>
