<svg xmlns="http://www.w3.org/2000/svg" width="30" height="27.692" viewBox="0 0 30 27.692">
  <path id="print_icon" d="M70.923,153.385H87.077v-4.615H70.923Zm0-11.538H87.077v-6.923H84.192a1.724,1.724,0,0,1-1.731-1.731v-2.885H70.923ZM91.692,143a1.17,1.17,0,1,0-.343.811A1.109,1.109,0,0,0,91.692,143ZM94,143v7.5a.585.585,0,0,1-.577.577H89.385v2.885a1.724,1.724,0,0,1-1.731,1.731H70.346a1.724,1.724,0,0,1-1.731-1.731v-2.885H64.577A.585.585,0,0,1,64,150.5V143a3.478,3.478,0,0,1,3.462-3.462h1.154v-9.808A1.724,1.724,0,0,1,70.346,128H82.462a4.8,4.8,0,0,1,2.957,1.226l2.74,2.74a4.8,4.8,0,0,1,1.226,2.957v4.615h1.154A3.478,3.478,0,0,1,94,143Z" transform="translate(-64 -128)" fill="#fff"/>
</svg>
