<svg xmlns="http://www.w3.org/2000/svg" xmlns:xlink="http://www.w3.org/1999/xlink" width="8.629" height="18" viewBox="0 0 8.629 18">
  <defs>
    <clipPath id="clip-path">
      <rect id="Rectangle_1155" data-name="Rectangle 1155" width="18" height="8.629" transform="translate(0 0)" fill="#222" stroke="#707070" stroke-width="1" opacity="0.5"/>
    </clipPath>
  </defs>
  <g id="arrow_left_icon" transform="translate(8.629) rotate(90)" clip-path="url(#clip-path)">
    <path id="iconfinder_arrow128_216449" d="M13.43.869,12.967.406a1.312,1.312,0,0,0-1.85,0L6.877,4.644,2.637.406a1.312,1.312,0,0,0-1.851,0L.323.869a1.312,1.312,0,0,0,0,1.851L5.878,8.275a1.3,1.3,0,0,0,1,.375,1.3,1.3,0,0,0,1-.375L13.43,2.721A1.313,1.313,0,0,0,13.43.869Z" transform="translate(2.124 -0.024)" fill="#222"/>
  </g>
</svg>
