<svg xmlns="http://www.w3.org/2000/svg" width="164.928" height="102.599" viewBox="0 0 164.928 102.599">
  <g id="dowolny_pracownik_icon" transform="translate(-418 -473.038)">
    <g id="g6" transform="translate(449.292 473.038)">
      <path id="path2" d="M256,111.9Z" transform="translate(-204.828 -111.9)" fill="rgba(112,112,112,0.94)"/>
      <path id="path4" d="M202.483,191.28c-4.123-1.389-10.86-1.816-13.805-2.92-2.062-.783-5.338-1.6-6.369-2.849-1.068-1.211-1.068-10.007-1.068-10.007a16.206,16.206,0,0,0,3.645-4.915c1.068-2.6,1.767-9.651,1.767-9.651a1.972,1.972,0,0,0,.552.071c.773,0,2.172-.5,2.835-3.775.81-4.024,2.356-6.125,1.951-9.081-.294-1.994-1.178-2.315-1.693-2.315a1.342,1.342,0,0,0-.442.071s2.1-2.991,2.1-13.177c0-10.47-8.357-20.8-23.782-20.833-15.462.036-23.782,10.363-23.782,20.833,0,10.15,2.1,13.177,2.1,13.177a1.342,1.342,0,0,0-.442-.071c-.552,0-1.436.321-1.693,2.315-.4,2.956,1.1,5.093,1.951,9.081.663,3.276,2.062,3.775,2.835,3.775a1.972,1.972,0,0,0,.552-.071s.7,7.087,1.767,9.651A16.206,16.206,0,0,0,155.1,175.5s0,8.8-1.068,10.007-4.307,2.066-6.369,2.849c-2.945,1.1-9.682,1.531-13.805,2.92S117,198.474,117,214.5H219.344C219.344,198.474,206.643,192.669,202.483,191.28Z" transform="translate(-117 -111.9)" fill="rgba(112,112,112,0.94)"/>
    </g>
    <path id="path8" d="M73.269,216.717c3.313-1.575,6.553-1.575,9.056-1.891,0,0,1.4-2.171-3.2-2.941,0,0-6.3-1.505-7.032-2.346s-.295-5.5-.295-5.5,8.8-.28,12.3-3.221c-5.706-8.122-2.651-17.61-3.829-26.468C79.122,165.532,73.563,160,62.924,160h-.368c-10.308,0-15.609,5.532-16.787,14.389s2.209,19.4-3.645,26.5C45.4,203.658,53.5,203.8,54.42,203.8h.074l.037-.035s.368,4.972-.368,5.812-2.908,1.611-4.381,1.926a85.532,85.532,0,0,0-9.5,2.7c-2.835.91-8.283,6.372-8.283,13.024H61.525c.81-2.8,6.369-7.912,11.744-10.5Z" transform="translate(386 330.746)" fill="#c4c4cf"/>
    <path id="path10" d="M361,227.221h29.525c0-6.652-5.448-12.114-8.283-13.059a87.864,87.864,0,0,0-9.5-2.7c-1.509-.315-3.645-1.085-4.381-1.926s-.368-5.812-.368-5.812l.037.035h.074c.92,0,9.056-.105,12.333-2.906-5.853-7.107-2.5-17.645-3.681-26.5C375.582,165.532,370.281,160,359.973,160h-.368c-10.639,0-16.235,5.532-17.376,14.389-1.178,8.858,1.878,18.346-3.829,26.468,3.5,2.941,12.3,3.221,12.3,3.221s.442,4.656-.295,5.5-7.032,2.346-7.032,2.346c-4.6.77-3.2,2.941-3.2,2.941,2.5.315,5.78.315,9.056,1.891,5.412,2.556,10.971,7.667,11.781,10.468Z" transform="translate(192.399 330.746)" fill="#c4c4cf"/>
  </g>
</svg>
