<svg xmlns="http://www.w3.org/2000/svg" width="24" height="25.846" viewBox="0 0 24 25.846">
  <path id="kalendarz_icon_black" d="M65.846,24H70V19.846H65.846Zm5.077,0h4.615V19.846H70.923Zm-5.077-5.077H70V14.308H65.846Zm5.077,0h4.615V14.308H70.923Zm-5.077-5.538H70V9.231H65.846ZM76.462,24h4.615V19.846H76.462ZM70.923,13.385h4.615V9.231H70.923ZM82,24h4.154V19.846H82Zm-5.538-5.077h4.615V14.308H76.462ZM71.385,6.462V2.308a.468.468,0,0,0-.462-.462H70a.468.468,0,0,0-.462.462V6.462A.468.468,0,0,0,70,6.923h.923a.468.468,0,0,0,.462-.462ZM82,18.923h4.154V14.308H82Zm-5.538-5.538h4.615V9.231H76.462Zm5.538,0h4.154V9.231H82Zm.462-6.923V2.308A.468.468,0,0,0,82,1.846h-.923a.468.468,0,0,0-.462.462V6.462a.468.468,0,0,0,.462.462H82a.468.468,0,0,0,.462-.462ZM88,5.538V24a1.872,1.872,0,0,1-1.846,1.846H65.846A1.872,1.872,0,0,1,64,24V5.538a1.774,1.774,0,0,1,.548-1.3,1.774,1.774,0,0,1,1.3-.548h1.846V2.308A2.222,2.222,0,0,1,68.37.678,2.222,2.222,0,0,1,70,0h.923a2.222,2.222,0,0,1,1.63.678,2.222,2.222,0,0,1,.678,1.63V3.692h5.538V2.308a2.222,2.222,0,0,1,.678-1.63A2.222,2.222,0,0,1,81.077,0H82a2.222,2.222,0,0,1,1.63.678,2.222,2.222,0,0,1,.678,1.63V3.692h1.846a1.774,1.774,0,0,1,1.3.548A1.774,1.774,0,0,1,88,5.538Z" transform="translate(-64)" fill="#707070"/>
</svg>
