<svg xmlns="http://www.w3.org/2000/svg" width="20" height="20" viewBox="0 0 20 20">
  <g id="search_icon" transform="translate(-712 -442)">
    <rect id="Rectangle_693" data-name="Rectangle 693" width="20" height="20" transform="translate(712 442)" fill="none"/>
    <path id="Path_208" data-name="Path 208" d="M19.9,18.148l-4.13-4.13a8.569,8.569,0,0,0,1.752-5.257A8.707,8.707,0,0,0,8.761,0,8.707,8.707,0,0,0,0,8.761a8.707,8.707,0,0,0,8.761,8.761,8.569,8.569,0,0,0,5.257-1.752l4.13,4.13ZM2.5,8.761A6.2,6.2,0,0,1,8.761,2.5a6.2,6.2,0,0,1,6.258,6.258,6.2,6.2,0,0,1-6.258,6.258A6.2,6.2,0,0,1,2.5,8.761Z" transform="translate(712 442)" fill="#c4c4cf"/>
  </g>
</svg>
